<?xml version="1.0" encoding="UTF-8"?>
<svg id="Layer_2" data-name="Layer 2" xmlns="http://www.w3.org/2000/svg" viewBox="0 0 1303.19 501.84">
  <defs>
    <style>
      .cls-1 {
        fill: #fffdf5;
      }

      .cls-2 {
        fill: #f4ecd4;
      }

      .cls-3 {
        fill: none;
        stroke: #01420d;
        stroke-miterlimit: 10;
        stroke-width: 6px;
      }

      .cls-4 {
        fill: #fff;
      }

      .cls-5 {
        fill: red;
      }
    </style>
  </defs>
  <g id="Layer_1-2" data-name="Layer 1">
    <circle cx="250.92" cy="250.92" r="250.92"/>
    <g>
      <path class="cls-5" d="M719.45,159.59c-2.77-.45-5.01-2.69-5.47-5.47-.76-4.58,3.15-8.49,7.73-7.73,2.78.45,5.01,2.69,5.47,5.47.76,4.58-3.15,8.49-7.73,7.73Z"/>
      <path d="M727.28,199.86v107.15c-7.4,0-13.39-6-13.39-13.39v-93.76s0,0,0,0h13.39s0,0,0,0Z"/>
      <path d="M1182.64,173.03s-.02.04-.04.04h-147.24s-.04-.02-.04-.04v-66.92c-.05-6.95-5.53-12.58-12.29-12.58s-12.3,5.67-12.3,12.66c0,1.04.12,2.06.35,3.03.92-5.19,3.17-8.86,5.8-8.86,1.29,0,2.49.88,3.49,2.4,1.06,1.61,1.55,3.52,1.55,5.44v64.83s-.02.04-.04.04h-267.78s-.04-.02-.04-.04v-66.19c0-.22.01-.43.01-.65,0-6.99-5.51-12.66-12.3-12.66s-12.3,5.67-12.3,12.66c0,1.03.12,2.03.35,2.99.92-5.19,3.17-8.85,5.8-8.85,1.29,0,2.5.89,3.49,2.41,1.06,1.61,1.55,3.53,1.55,5.46v64.82s-.02.04-.04.04h-214.21s-.04.02-.04.04v13.31s.02.04.04.04h26.7s.04.02.04.04v120.46s.02.04.04.04h13.31s.04-.02.04-.04v-73.63c0-9.59,6.74-17.63,15.73-19.61,1.41-.32,2.87-.48,4.36-.48,6.5,0,12.28,3.09,15.95,7.87,2.6,3.39,4.14,7.62,4.14,12.22v95.51c0,6.99,5.51,12.66,12.3,12.66s12.3-5.67,12.3-12.66c0-1.18-.16-2.31-.45-3.39-.92,5.2-3.17,8.87-5.8,8.87-1.26,0-2.43-.84-3.41-2.28-1.05-1.54-1.54-3.39-1.54-5.26v-93.45c0-2.29-.24-4.53-.67-6.7-3.11-15.28-16.62-26.79-32.82-26.79-7.5,0-14.44,2.48-20.02,6.64-.03.02-.07,0-.07-.03v-19.96s.02-.04.04-.04h66.89s.04.02.04.04v120.46s.02.04.04.04h13.31s.04-.02.04-.04v-73.63c0-9.59,6.73-17.63,15.73-19.61,1.41-.32,2.87-.48,4.36-.48,6.49,0,12.28,3.09,15.94,7.87,2.6,3.39,4.15,7.62,4.15,12.22,0,2.33-.4,4.57-1.13,6.64,0,.03.01.06.04.06h6.21c4.73,0,8.49-3.98,8.21-8.7-.5-8.45-4.19-16.09-9.86-21.73-5.67-5.63-13.34-9.27-21.79-9.71-8.18-.42-15.77,2.1-21.79,6.59-.03.02-.07,0-.07-.03v-19.96s.02-.04.04-.04h93.67s.04.02.04.04v106.58c0,15.02,12.29,27.6,27.3,27.31,8.54-.16,16.11-4.32,20.9-10.7,4.97-6.61.27-16.04-7.99-16.07-.02,0-.04.02-.04.04-.02,7.37-6.02,13.34-13.4,13.34-.16,0-.32,0-.49,0-7.26-.26-12.9-6.44-12.9-13.7v-106.79s.02-.04.04-.04h80.27s.04.02.04.04v46.44c0,10.59-8.03,19.66-18.58,20.43-11.78.86-21.59-8.44-21.59-20.04v-33.44s-.02-.04-.04-.04h-13.31s-.04.02-.04.04v33.44c0,2.29.23,4.53.67,6.7,3.1,15.29,16.61,26.79,32.81,26.79,7.5,0,14.44-2.48,20.02-6.64.03-.02.07,0,.07.03v73.25c0,7.26-5.65,13.45-12.9,13.7-7.62.27-13.89-5.82-13.89-13.38v-13.35s-.02-.04-.04-.04h-.37c-7.19,0-13.04,5.89-12.98,13.08.12,14.75,12.08,27.1,26.8,27.1.16,0,.34,0,.51,0,14.55-.28,26.27-12.16,26.27-26.78v-147.29s.02-.04.04-.04h13.31s.04.02.04.04v40.09s.02.04.04.04h14.47s.03-.01.04-.03c2.99-8.43,11.45-14.26,21.11-13.25,9.59,1.01,17.22,8.95,17.87,18.58.18,2.84-.21,5.57-1.09,8.06,0,.02-.02.03-.04.03h-18.92c-2.29,0-4.53.24-6.7.67-15.29,3.11-26.79,16.62-26.79,32.82s11.5,29.71,26.79,32.81c2.16.43,4.4.67,6.7.67h33.44s.04-.02.04-.04v-73.63c0-7.52-2.49-14.49-6.69-20.09-6.11-8.13-15.84-13.39-26.79-13.39-7.5,0-14.44,2.48-20.02,6.64-.03.02-.07,0-.07-.03v-19.96s.02-.04.04-.04h120.45s.04.02.04.04v19.96s-.04.05-.07.03c-5.58-4.16-12.52-6.64-20.02-6.64h-6.17c-15.05,0-27.56,12.18-27.31,27.24.03,2.08.31,4.11.79,6.06.04.16.09.34.12.5.22.79.47,1.56.75,2.32.06.16.12.34.19.5.49,1.24,1.06,2.43,1.73,3.57.14.26.29.5.45.75.3.49.62.97.96,1.43.16.24.34.47.51.7.18.23.35.45.53.68.16.2.33.39.49.58.02.02.05.05.07.07.19.21.37.43.57.64.2.2.4.41.6.62.18.18.35.35.54.53.03.02.06.05.08.07.21.2.43.39.64.58.22.19.43.37.66.57.24.2.49.39.74.59.2.16.41.32.62.47.23.17.47.34.71.49.23.16.47.32.72.48.21.13.43.27.64.39.28.17.56.33.84.48.21.12.41.24.63.34.77.39,1.56.76,2.37,1.07.13.05.24.1.36.14.21.07.41.16.62.22.17.06.35.12.52.18.33.11.66.21.99.3.11.04.22.07.33.1.24.06.47.12.7.18.29.07.58.14.87.2,0,0,.02,0,.03,0,.28.06.57.11.85.16.26.04.51.09.78.12.39.06.79.11,1.19.14.22.03.43.05.65.06.64.05,1.29.07,1.93.07h13.34c7.42,0,13.44,6.02,13.44,13.44v6.26c0,10.58-8.03,19.66-18.58,20.43-11.77.85-21.59-8.44-21.59-20.04,0-2.33.39-4.57,1.12-6.64,0-.03-.01-.05-.04-.05h-6.09c-4.8,0-8.6,4.04-8.32,8.83.52,8.34,4.14,15.88,9.71,21.48,5.57,5.6,13.1,9.25,21.43,9.8,11.87.78,22.54-4.63,29.07-13.31,4.2-5.6,6.69-12.57,6.69-20.09v-6.7c0-11.68-7.49-21.63-17.91-25.29-2.78-.97-5.76-1.5-8.87-1.5h-13.39c-.22,0-.44,0-.66-.01-.04,0-.09,0-.13,0-.07,0-.15,0-.22-.01-.13,0-.27-.03-.39-.04-.19-.02-.39-.05-.58-.07-8.57-1.37-12.5-11.76-7.19-18.86,0-.01.01-.03.02-.03.11-.15.23-.3.35-.44.03-.03.06-.07.09-.11.39-.47.8-.91,1.23-1.34.2-.2.41-.4.62-.58.2-.18.39-.35.6-.53.03-.03.07-.07.12-.1.19-.16.39-.33.59-.48.48-.37.97-.71,1.48-1.03.2-.14.42-.27.64-.39,0-.01.02-.02.04-.02.24-.15.48-.28.74-.41h0c.24-.14.51-.27.76-.39.21-.11.42-.2.64-.29.11-.05.23-.1.35-.14.18-.08.36-.15.55-.22.3-.11.6-.22.91-.32.25-.08.51-.15.76-.23.04,0,.07-.02.11-.03.25-.07.49-.12.74-.18.04-.01.07-.02.1-.03.24-.05.48-.11.72-.14.1-.02.19-.04.29-.05.23-.04.48-.08.72-.11.26-.04.52-.07.79-.09.07-.01.13-.01.18-.02.28-.03.55-.05.83-.05.3-.01.61-.03.91-.03,8.73,0,16.17,5.58,18.94,13.37,0,.02.02.03.04.03h14.47s.04-.02.04-.04v-40.09s.02-.04.04-.04h13.31s.04.02.04.04v120.46s.02.04.04.04h13.31s.04-.02.04-.04v-73.21c0-10.95,8.58-20.19,19.52-20.5,11.36-.32,20.65,8.8,20.65,20.08v95.46c0,6.99,5.51,12.66,12.3,12.66s12.3-5.66,12.3-12.66c0-1.18-.16-2.31-.45-3.39-.92,5.2-3.17,8.87-5.8,8.87-1.26,0-2.43-.84-3.41-2.28-1.05-1.54-1.54-3.39-1.54-5.25v-27.72h0v-65.68c0-2.29-.23-4.53-.67-6.7-3.1-15.28-16.61-26.79-32.81-26.79-7.5,0-14.44,2.48-20.02,6.64-.03.02-.07,0-.07-.03v-19.96s.02-.04.04-.04h66.88s.04.02.04.04v40.09s.02.04.04.04h14.47s.03-.01.04-.03c2.99-8.43,11.45-14.26,21.1-13.25,9.59,1.01,17.22,8.95,17.87,18.58.18,2.84-.21,5.57-1.09,8.06,0,.02-.02.03-.04.03h-18.92c-2.29,0-4.53.24-6.7.67-15.28,3.11-26.79,16.62-26.79,32.82s11.51,29.71,26.79,32.81c2.17.43,4.41.67,6.7.67h33.44s.04-.02.04-.04v-73.63c0-7.52-2.49-14.49-6.69-20.09-6.11-8.13-15.84-13.39-26.79-13.39-7.5,0-14.44,2.48-20.02,6.64-.03.02-.07,0-.07-.03v-19.96s.02-.04.04-.04h66.88s.04.02.04.04v120.5h.01v21.83c0,6.99,5.51,12.66,12.3,12.66s12.3-5.66,12.3-12.66c0-1.18-.16-2.31-.45-3.39-.92,5.2-3.17,8.87-5.8,8.87-1.26,0-2.43-.84-3.41-2.28-1.05-1.54-1.54-3.39-1.54-5.25v-27.72s-.02,0-.02,0v-112.56s.02-.04.04-.04h13.31s.04.02.04.04v40.09s.02.04.04.04h14.47s.03-.01.04-.03c2.99-8.43,11.45-14.26,21.1-13.25,9.6,1.01,17.22,8.95,17.87,18.58.18,2.84-.21,5.57-1.09,8.06,0,.02-.02.03-.04.03h-18.92c-2.29,0-4.53.24-6.7.67-15.28,3.11-26.79,16.62-26.79,32.82s11.51,29.71,26.79,32.81c2.17.43,4.41.67,6.7.67h33.44s.04-.02.04-.04v-47.09h0v-25.64h-.02c0-.3.01-.59.01-.89,0-7.52-2.49-14.49-6.68-20.09-6.11-8.13-15.84-13.39-26.8-13.39-7.5,0-14.44,2.48-20.02,6.64-.03.02-.07,0-.07-.03v-19.96s.02-.04.04-.04h80.28s.04-.02.04-.04v-13.31s-.02-.04-.04-.04h-107.07s-.04-.02-.04-.04v-66.74c0-.22.01-.43.01-.65,0-6.99-5.5-12.66-12.3-12.66s-12.29,5.67-12.29,12.66c0,.89.09,1.76.26,2.6.96-4.96,3.16-8.42,5.72-8.42,2.18,0,4.08,2.5,5.2,6.3M914.78,293.57s-.02.04-.04.04h-19.65c-10.58,0-19.66-8.03-20.43-18.59-.85-11.77,8.44-21.59,20.04-21.59h20.05s.04.02.04.04v40.1ZM1155.86,293.57s-.02.04-.04.04h-19.65c-10.59,0-19.66-8.03-20.43-18.59-.86-11.77,8.44-21.59,20.03-21.59h20.05s.04.02.04.04v40.1ZM1263,293.57s-.02.04-.04.04h-19.65c-10.59,0-19.66-8.03-20.43-18.59-.86-11.77,8.44-21.59,20.03-21.59h20.05s.04.02.04.04v40.1Z"/>
    </g>
    <g>
      <path class="cls-4" d="M281.78,129.99c.29,2.81-1.77,5.33-4.58,5.61-.26.03-.53.03-.79.02,1.14.83,1.93,2.13,2.09,3.64.29,2.83-1.78,5.36-4.61,5.65-1.29.13-2.51-.22-3.48-.91.5.71.83,1.55.93,2.47.29,2.83-1.78,5.36-4.61,5.65-1.91.2-3.7-.69-4.73-2.16.5,1.76.03,3.74-1.39,5.1-2.05,1.95-5.29,1.89-7.24-.16-.86-.9-1.36-2.03-1.44-3.18-.09,1.22-.61,2.43-1.57,3.34-2.04,1.95-5.28,1.89-7.24-.16-1.16-1.21-1.6-2.83-1.35-4.37-.16.21-.34.41-.54.6-2.04,1.96-5.28,1.89-7.24-.16-1.72-1.81-1.87-4.54-.48-6.5.06-.08.13-.17.2-.25-.09.06-.17.13-.26.18-1.35.92-3.1,1.18-4.73.55-2.64-1.01-3.96-3.98-2.94-6.62.39-1.01,1.05-1.82,1.87-2.38-.95.22-1.98.16-2.96-.21-2.64-1.02-3.96-3.98-2.94-6.62.63-1.63,1.99-2.75,3.56-3.14-.42-.04-.83-.14-1.25-.3-2.64-1.02-3.96-3.98-2.95-6.62.86-2.24,3.13-3.53,5.42-3.25-1.17-.94-1.92-2.38-1.92-4,0-2.83,2.29-5.13,5.13-5.13,1.22,0,2.35.43,3.23,1.14-.61-.84-.97-1.87-.97-2.99,0-2.83,2.29-5.12,5.12-5.12,1.85,0,3.47.98,4.37,2.44,0,0,0,.01,0,.02v-.02c-.06-.31-.09-.63-.09-.96,0-2.83,2.29-5.12,5.12-5.12,2.48,0,4.54,1.75,5.02,4.08.32-1.52,1.32-2.88,2.83-3.59,2.56-1.21,5.61-.11,6.82,2.45.44.94.57,1.94.44,2.89.49-.71,1.17-1.3,2.01-1.7,2.56-1.21,5.62-.11,6.82,2.45.78,1.66.59,3.54-.34,4.97.24-.17.5-.32.78-.45,2.56-1.2,5.61-.11,6.82,2.45.96,2.04.47,4.37-1.06,5.86.63-.03,1.28.06,1.91.28,2.67.94,4.06,3.87,3.12,6.54-.59,1.69-1.98,2.87-3.6,3.27,1.97.55,3.51,2.26,3.73,4.42Z"/>
      <line class="cls-3" x1="251.96" y1="159.8" x2="251.96" y2="58.97"/>
      <line class="cls-3" x1="240.08" y1="160.5" x2="228.21" y2="60.38"/>
      <line class="cls-3" x1="227.31" y1="162.84" x2="202.67" y2="65.09"/>
      <line class="cls-3" x1="214.69" y1="166.92" x2="177.43" y2="73.25"/>
      <line class="cls-3" x1="202.13" y1="172.95" x2="152.32" y2="85.31"/>
      <line class="cls-3" x1="375.77" y1="423.16" x2="314.61" y2="343"/>
      <line class="cls-3" x1="190.79" y1="180.47" x2="129.63" y2="100.31"/>
      <line class="cls-3" x1="396.21" y1="405.68" x2="324.91" y2="334.38"/>
      <line class="cls-3" x1="180.66" y1="189.33" x2="109.37" y2="118.04"/>
      <line class="cls-3" x1="414.54" y1="383.19" x2="334.04" y2="322.48"/>
      <line class="cls-3" x1="171.45" y1="199.92" x2="90.96" y2="139.21"/>
      <line class="cls-3" x1="428.56" y1="362.58" x2="341.25" y2="312.18"/>
      <line class="cls-3" x1="164.62" y1="210.21" x2="77.32" y2="159.8"/>
      <line class="cls-3" x1="440.92" y1="338.31" x2="347.73" y2="299.87"/>
      <line class="cls-3" x1="158.72" y1="222.17" x2="65.54" y2="183.73"/>
      <line class="cls-3" x1="448.68" y1="313.37" x2="351.39" y2="287.01"/>
      <line class="cls-3" x1="154.62" y1="234.25" x2="57.32" y2="207.89"/>
      <line class="cls-3" x1="453.16" y1="287.35" x2="353.24" y2="273.99"/>
      <line class="cls-3" x1="152.01" y1="247.27" x2="52.08" y2="233.91"/>
      <line class="cls-3" x1="455.31" y1="258.97" x2="354.48" y2="258.97"/>
      <line class="cls-3" x1="150.36" y1="259.38" x2="49.54" y2="259.38"/>
      <line class="cls-3" x1="453.21" y1="235.3" x2="353.19" y2="247.92"/>
      <line class="cls-3" x1="151.92" y1="273.25" x2="51.89" y2="285.87"/>
      <line class="cls-3" x1="448.82" y1="209.37" x2="351.26" y2="234.73"/>
      <line class="cls-3" x1="154.35" y1="286" x2="56.79" y2="311.37"/>
      <line class="cls-3" x1="440.18" y1="184.72" x2="346.8" y2="222.66"/>
      <line class="cls-3" x1="158.52" y1="298.6" x2="65.14" y2="336.54"/>
      <line class="cls-3" x1="427.94" y1="158.84" x2="340.67" y2="209.3"/>
      <line class="cls-3" x1="164.66" y1="311.11" x2="77.38" y2="361.56"/>
      <line class="cls-3" x1="414.14" y1="135" x2="334.44" y2="196.76"/>
      <line class="cls-3" x1="172.26" y1="322.39" x2="92.56" y2="384.14"/>
      <line class="cls-3" x1="394.86" y1="115.49" x2="324.09" y2="187.32"/>
      <line class="cls-3" x1="181.19" y1="332.45" x2="110.43" y2="404.27"/>
      <line class="cls-3" x1="374.29" y1="98.15" x2="314.18" y2="179.09"/>
      <line class="cls-3" x1="184.74" y1="350.25" x2="131.73" y2="422.53"/>
      <line class="cls-3" x1="352.79" y1="84.1" x2="303.03" y2="171.77"/>
      <line class="cls-3" x1="327.47" y1="72.31" x2="289.73" y2="165.78"/>
      <line class="cls-3" x1="304.25" y1="63.3" x2="278.62" y2="160.78"/>
      <line class="cls-3" x1="277.2" y1="59.38" x2="264.58" y2="159.4"/>
      <path class="cls-4" d="M213.87,96.88c-62.1,13.81-110.97,62.43-125.02,124.47-16.01,70.69,12.58,136.24,63.13,174,20.64,15.42,50.05.46,50.05-25.3h0c0-12.73-5.72-24.69-15.36-33-21.41-18.45-34.99-45.74-35.05-76.21-.11-54.94,44.45-100.26,99.39-101.03,56.35-.79,102.27,44.65,102.27,100.82,0,30.5-13.54,57.83-34.93,76.32-9.87,8.53-15.48,20.99-15.48,34.04h0c0,25.31,28.81,40.03,49.18,25.01,41.52-30.6,68.45-79.84,68.45-135.37,0-105.39-97.02-188.12-206.62-163.75Z"/>
      <ellipse class="cls-1" cx="129.24" cy="99.83" rx="4.3" ry="10.06" transform="translate(-34.07 99.44) rotate(-37.55)"/>
      <ellipse class="cls-1" cx="151.78" cy="84.68" rx="4.3" ry="10.06" transform="translate(-21.97 89.05) rotate(-30.6)"/>
      <ellipse class="cls-1" cx="177.02" cy="72.31" rx="4.3" ry="10.06" transform="translate(-14.2 71.37) rotate(-21.94)"/>
      <ellipse class="cls-1" cx="202.31" cy="64.01" rx="4.3" ry="10.06" transform="translate(-9.65 54.06) rotate(-14.87)"/>
      <ellipse class="cls-1" cx="228.08" cy="59.18" rx="4.3" ry="10.06" transform="translate(-5.21 26.01) rotate(-6.45)"/>
      <ellipse class="cls-1" cx="251.96" cy="57.82" rx="4.3" ry="10.06"/>
      <ellipse class="cls-1" cx="277.45" cy="59.46" rx="10.06" ry="4.3" transform="translate(181.33 326.44) rotate(-82.29)"/>
      <ellipse class="cls-1" cx="303.55" cy="64.5" rx="10.06" ry="4.3" transform="translate(166.1 342.73) rotate(-75.71)"/>
      <ellipse class="cls-1" cx="327.47" cy="72.51" rx="10.06" ry="4.3" transform="translate(137.42 348.87) rotate(-67.97)"/>
      <ellipse class="cls-1" cx="352.79" cy="84.93" rx="10.06" ry="4.3" transform="translate(108.63 353.37) rotate(-61.25)"/>
      <ellipse class="cls-1" cx="373.46" cy="98.79" rx="10.06" ry="4.3" transform="translate(71.72 340) rotate(-53.46)"/>
      <ellipse class="cls-1" cx="393.61" cy="116.44" rx="10.06" ry="4.3" transform="translate(39.33 323.74) rotate(-46.81)"/>
      <ellipse class="cls-1" cx="133.87" cy="419.74" rx="10.06" ry="4.3" transform="translate(-284.06 280.33) rotate(-53.86)"/>
      <ellipse class="cls-1" cx="112.82" cy="402.09" rx="10.06" ry="4.3" transform="translate(-254.71 203.78) rotate(-45.98)"/>
      <ellipse class="cls-1" cx="95.02" cy="382.35" rx="10.06" ry="4.3" transform="translate(-215.84 140.3) rotate(-38.14)"/>
      <ellipse class="cls-1" cx="79.83" cy="360.35" rx="10.06" ry="4.3" transform="translate(-173.75 92.16) rotate(-30.91)"/>
      <ellipse class="cls-1" cx="67.41" cy="335.74" rx="10.06" ry="4.3" transform="translate(-124.4 52.06) rotate(-22.71)"/>
      <ellipse class="cls-1" cx="58.84" cy="310.84" rx="10.06" ry="4.3" transform="translate(-77 25.13) rotate(-14.71)"/>
      <ellipse class="cls-1" cx="53.67" cy="285.65" rx="10.06" ry="4.3" transform="translate(-37.33 9.61) rotate(-7.6)"/>
      <ellipse class="cls-1" cx="51.75" cy="259.38" rx="10.06" ry="4.3"/>
      <ellipse class="cls-1" cx="53.21" cy="234.18" rx="4.3" ry="10.06" transform="translate(-185.74 258.25) rotate(-82.95)"/>
      <ellipse class="cls-1" cx="58.06" cy="208.18" rx="4.3" ry="10.06" transform="translate(-158.01 213.2) rotate(-75.75)"/>
      <ellipse class="cls-1" cx="65.91" cy="184.04" rx="4.3" ry="10.06" transform="translate(-129.51 178.74) rotate(-68.74)"/>
      <ellipse class="cls-1" cx="77.45" cy="159.91" rx="4.3" ry="10.06" transform="translate(-99.79 147.46) rotate(-60.14)"/>
      <ellipse class="cls-1" cx="109.12" cy="117.79" rx="4.3" ry="10.06" transform="translate(-51.35 112.17) rotate(-45.18)"/>
      <ellipse class="cls-1" cx="90.83" cy="139.21" rx="4.3" ry="10.06" transform="translate(-75.1 129.42) rotate(-53.5)"/>
      <ellipse class="cls-1" cx="411.56" cy="136.89" rx="10.06" ry="4.3" transform="translate(5.4 289.06) rotate(-38.94)"/>
      <ellipse class="cls-1" cx="426.51" cy="159.71" rx="10.06" ry="4.3" transform="translate(-22.71 234.65) rotate(-30)"/>
      <ellipse class="cls-1" cx="438.42" cy="184.71" rx="10.06" ry="4.3" transform="translate(-37.3 189.53) rotate(-23.43)"/>
      <ellipse class="cls-1" cx="446.52" cy="210" rx="10.06" ry="4.3" transform="translate(-38.4 118.72) rotate(-14.53)"/>
      <ellipse class="cls-1" cx="450.24" cy="235.3" rx="10.06" ry="4.3" transform="translate(-26.27 59.17) rotate(-7.31)"/>
      <ellipse class="cls-1" cx="451.76" cy="258.71" rx="10.06" ry="4.3" transform="translate(-4.97 8.89) rotate(-1.12)"/>
      <ellipse class="cls-1" cx="450.24" cy="287.16" rx="4.3" ry="10.06" transform="translate(105.2 694.74) rotate(-82.28)"/>
      <ellipse class="cls-1" cx="444.7" cy="311.43" rx="4.3" ry="10.06" transform="translate(28.54 660.09) rotate(-74.96)"/>
      <ellipse class="cls-1" cx="436.29" cy="336.63" rx="4.3" ry="10.06" transform="translate(-42.57 609.32) rotate(-67.31)"/>
      <ellipse class="cls-1" cx="424.37" cy="360.17" rx="4.3" ry="10.06" transform="translate(-99.73 547.6) rotate(-60)"/>
      <ellipse class="cls-1" cx="410.69" cy="380.33" rx="4.3" ry="10.06" transform="translate(-140.34 478.75) rotate(-52.93)"/>
      <ellipse class="cls-1" cx="392.3" cy="401" rx="4.3" ry="10.06" transform="translate(-168.66 395.25) rotate(-45.04)"/>
      <ellipse class="cls-1" cx="373.68" cy="419.74" rx="4.3" ry="10.06" transform="translate(-177.86 311.92) rotate(-37.26)"/>
      <path class="cls-2" d="M281.78,129.99c.29,2.81-1.77,5.33-4.58,5.61-.26.03-.53.03-.79.02,1.14.83,1.93,2.13,2.09,3.64.29,2.83-1.78,5.36-4.61,5.65-1.29.13-2.51-.22-3.48-.91.5.71.83,1.55.93,2.47.29,2.83-1.78,5.36-4.61,5.65-1.91.2-3.7-.69-4.73-2.16.5,1.76.03,3.74-1.39,5.1-2.05,1.95-5.29,1.89-7.24-.16-.86-.9-1.36-2.03-1.44-3.18-.09,1.22-.61,2.43-1.57,3.34-2.04,1.95-5.28,1.89-7.24-.16-1.16-1.21-1.6-2.83-1.35-4.37-.16.21-.34.41-.54.6-2.04,1.96-5.28,1.89-7.24-.16-1.72-1.81-1.87-4.54-.48-6.5.06-.08.13-.17.2-.25-.09.06-.17.13-.26.18-1.35.92-3.1,1.18-4.73.55-2.64-1.01-3.96-3.98-2.94-6.62.39-1.01,1.05-1.82,1.87-2.38-.95.22-1.98.16-2.96-.21-2.64-1.02-3.96-3.98-2.94-6.62.63-1.63,1.99-2.75,3.56-3.14-.42-.04-.83-.14-1.25-.3-2.64-1.02-3.96-3.98-2.95-6.62.86-2.24,3.13-3.53,5.42-3.25-1.17-.94-1.92-2.38-1.92-4,0-2.83,2.29-5.13,5.13-5.13,1.22,0,2.35.43,3.23,1.14-.61-.84-.97-1.87-.97-2.99,0-2.83,2.29-5.12,5.12-5.12,1.85,0,3.47.98,4.37,2.44,0,0,0,.01,0,.02v-.02c-.06-.31-.09-.63-.09-.96,0-2.83,2.29-5.12,5.12-5.12,2.48,0,4.54,1.75,5.02,4.08.32-1.52,1.32-2.88,2.83-3.59,2.56-1.21,5.61-.11,6.82,2.45.44.94.57,1.94.44,2.89.49-.71,1.17-1.3,2.01-1.7,2.56-1.21,5.62-.11,6.82,2.45.78,1.66.59,3.54-.34,4.97.24-.17.5-.32.78-.45,2.56-1.2,5.61-.11,6.82,2.45.96,2.04.47,4.37-1.06,5.86.63-.03,1.28.06,1.91.28,2.67.94,4.06,3.87,3.12,6.54-.59,1.69-1.98,2.87-3.6,3.27,1.97.55,3.51,2.26,3.73,4.42Z"/>
      <path class="cls-2" d="M345.83,146.48c.29,2.81-1.77,5.33-4.58,5.61-.26.03-.53.03-.79.02,1.14.83,1.93,2.13,2.09,3.64.29,2.83-1.78,5.36-4.61,5.65-1.29.13-2.51-.22-3.48-.91.5.71.83,1.55.93,2.47.29,2.83-1.78,5.36-4.61,5.65-1.91.2-3.7-.69-4.73-2.16.5,1.76.03,3.74-1.39,5.1-2.05,1.95-5.29,1.89-7.24-.16-.86-.9-1.36-2.03-1.44-3.18-.09,1.22-.61,2.43-1.57,3.34-2.04,1.95-5.28,1.89-7.24-.16-1.16-1.21-1.6-2.83-1.35-4.37-.16.21-.34.41-.54.6-2.04,1.96-5.28,1.89-7.24-.16-1.72-1.81-1.87-4.54-.48-6.5.06-.08.13-.17.2-.25-.09.06-.17.13-.26.18-1.35.92-3.1,1.18-4.73.55-2.64-1.01-3.96-3.98-2.94-6.62.39-1.01,1.05-1.82,1.87-2.38-.95.22-1.98.16-2.96-.21-2.64-1.02-3.96-3.98-2.94-6.62.63-1.63,1.99-2.75,3.56-3.14-.42-.04-.83-.14-1.25-.3-2.64-1.02-3.96-3.98-2.95-6.62.86-2.24,3.13-3.53,5.42-3.25-1.17-.94-1.92-2.38-1.92-4,0-2.83,2.29-5.13,5.13-5.13,1.22,0,2.35.43,3.23,1.14-.61-.84-.97-1.87-.97-2.99,0-2.83,2.29-5.12,5.12-5.12,1.85,0,3.47.98,4.37,2.44,0,0,0,.01,0,.02v-.02c-.06-.31-.09-.63-.09-.96,0-2.83,2.29-5.12,5.12-5.12,2.48,0,4.54,1.75,5.02,4.08.32-1.52,1.32-2.88,2.83-3.59,2.56-1.21,5.61-.11,6.82,2.45.44.94.57,1.94.44,2.89.49-.71,1.17-1.3,2.01-1.7,2.56-1.21,5.62-.11,6.82,2.45.78,1.66.59,3.54-.34,4.97.24-.17.5-.32.78-.45,2.56-1.2,5.61-.11,6.82,2.45.96,2.04.47,4.37-1.06,5.86.63-.03,1.28.06,1.91.28,2.67.94,4.06,3.87,3.12,6.54-.59,1.69-1.98,2.87-3.6,3.27,1.97.55,3.51,2.26,3.73,4.42Z"/>
      <path class="cls-2" d="M395.48,191.79c.29,2.81-1.77,5.33-4.58,5.61-.26.03-.53.03-.79.02,1.14.83,1.93,2.13,2.09,3.64.29,2.83-1.78,5.36-4.61,5.65-1.29.13-2.51-.22-3.48-.91.5.71.83,1.55.93,2.47.29,2.83-1.78,5.36-4.61,5.65-1.91.2-3.7-.69-4.73-2.16.5,1.76.03,3.74-1.39,5.1-2.05,1.95-5.29,1.89-7.24-.16-.86-.9-1.36-2.03-1.44-3.18-.09,1.22-.61,2.43-1.57,3.34-2.04,1.95-5.28,1.89-7.24-.16-1.16-1.21-1.6-2.83-1.35-4.37-.16.21-.34.41-.54.6-2.04,1.96-5.28,1.89-7.24-.16-1.72-1.81-1.87-4.54-.48-6.5.06-.08.13-.17.2-.25-.09.06-.17.13-.26.18-1.35.92-3.1,1.18-4.73.55-2.64-1.01-3.96-3.98-2.94-6.62.39-1.01,1.05-1.82,1.87-2.38-.95.22-1.98.16-2.96-.21-2.64-1.02-3.96-3.98-2.94-6.62.63-1.63,1.99-2.75,3.56-3.14-.42-.04-.83-.14-1.25-.3-2.64-1.02-3.96-3.98-2.95-6.62.86-2.24,3.13-3.53,5.42-3.25-1.17-.94-1.92-2.38-1.92-4,0-2.83,2.29-5.13,5.13-5.13,1.22,0,2.35.43,3.23,1.14-.61-.84-.97-1.87-.97-2.99,0-2.83,2.29-5.12,5.12-5.12,1.85,0,3.47.98,4.37,2.44,0,0,0,.01,0,.02v-.02c-.06-.31-.09-.63-.09-.96,0-2.83,2.29-5.12,5.12-5.12,2.48,0,4.54,1.75,5.02,4.08.32-1.52,1.32-2.88,2.83-3.59,2.56-1.21,5.61-.11,6.82,2.45.44.94.57,1.94.44,2.89.49-.71,1.17-1.3,2.01-1.7,2.56-1.21,5.62-.11,6.82,2.45.78,1.66.59,3.54-.34,4.97.24-.17.5-.32.78-.45,2.56-1.2,5.61-.11,6.82,2.45.96,2.04.47,4.37-1.06,5.86.63-.03,1.28.06,1.91.28,2.67.94,4.06,3.87,3.12,6.54-.59,1.69-1.98,2.87-3.6,3.27,1.97.55,3.51,2.26,3.73,4.42Z"/>
      <path class="cls-2" d="M416.48,254.81c.29,2.81-1.77,5.33-4.58,5.61-.26.03-.53.03-.79.02,1.14.83,1.93,2.13,2.09,3.64.29,2.83-1.78,5.36-4.61,5.65-1.29.13-2.51-.22-3.48-.91.5.71.83,1.55.93,2.47.29,2.83-1.78,5.36-4.61,5.65-1.91.2-3.7-.69-4.73-2.16.5,1.76.03,3.74-1.39,5.1-2.05,1.95-5.29,1.89-7.24-.16-.86-.9-1.36-2.03-1.44-3.18-.09,1.22-.61,2.43-1.57,3.34-2.04,1.95-5.28,1.89-7.24-.16-1.16-1.21-1.6-2.83-1.35-4.37-.16.21-.34.41-.54.6-2.04,1.96-5.28,1.89-7.24-.16-1.72-1.81-1.87-4.54-.48-6.5.06-.08.13-.17.2-.25-.09.06-.17.13-.26.18-1.35.92-3.1,1.18-4.73.55-2.64-1.01-3.96-3.98-2.94-6.62.39-1.01,1.05-1.82,1.87-2.38-.95.22-1.98.16-2.96-.21-2.64-1.02-3.96-3.98-2.94-6.62.63-1.63,1.99-2.75,3.56-3.14-.42-.04-.83-.14-1.25-.3-2.64-1.02-3.96-3.98-2.95-6.62.86-2.24,3.13-3.53,5.42-3.25-1.17-.94-1.92-2.38-1.92-4,0-2.83,2.29-5.13,5.13-5.13,1.22,0,2.35.43,3.23,1.14-.61-.84-.97-1.87-.97-2.99,0-2.83,2.29-5.12,5.12-5.12,1.85,0,3.47.98,4.37,2.44,0,0,0,.01,0,.02v-.02c-.06-.31-.09-.63-.09-.96,0-2.83,2.29-5.12,5.12-5.12,2.48,0,4.54,1.75,5.02,4.08.32-1.52,1.32-2.88,2.83-3.59,2.56-1.21,5.61-.11,6.82,2.45.44.94.57,1.94.44,2.89.49-.71,1.17-1.3,2.01-1.7,2.56-1.21,5.62-.11,6.82,2.45.78,1.66.59,3.54-.34,4.97.24-.17.5-.32.78-.45,2.56-1.2,5.61-.11,6.82,2.45.96,2.04.47,4.37-1.06,5.86.63-.03,1.28.06,1.91.28,2.67.94,4.06,3.87,3.12,6.54-.59,1.69-1.98,2.87-3.6,3.27,1.97.55,3.51,2.26,3.73,4.42Z"/>
      <path class="cls-2" d="M406.21,317.72c.29,2.81-1.77,5.33-4.58,5.61-.26.03-.53.03-.79.02,1.14.83,1.93,2.13,2.09,3.64.29,2.83-1.78,5.36-4.61,5.65-1.29.13-2.51-.22-3.48-.91.5.71.83,1.55.93,2.47.29,2.83-1.78,5.36-4.61,5.65-1.91.2-3.7-.69-4.73-2.16.5,1.76.03,3.74-1.39,5.1-2.05,1.95-5.29,1.89-7.24-.16-.86-.9-1.36-2.03-1.44-3.18-.09,1.22-.61,2.43-1.57,3.34-2.04,1.95-5.28,1.89-7.24-.16-1.16-1.21-1.6-2.83-1.35-4.37-.16.21-.34.41-.54.6-2.04,1.96-5.28,1.89-7.24-.16-1.72-1.81-1.87-4.54-.48-6.5.06-.08.13-.17.2-.25-.09.06-.17.13-.26.18-1.35.92-3.1,1.18-4.73.55-2.64-1.01-3.96-3.98-2.94-6.62.39-1.01,1.05-1.82,1.87-2.38-.95.22-1.98.16-2.96-.21-2.64-1.02-3.96-3.98-2.94-6.62.63-1.63,1.99-2.75,3.56-3.14-.42-.04-.83-.14-1.25-.3-2.64-1.02-3.96-3.98-2.95-6.62.86-2.24,3.13-3.53,5.42-3.25-1.17-.94-1.92-2.38-1.92-4,0-2.83,2.29-5.13,5.13-5.13,1.22,0,2.35.43,3.23,1.14-.61-.84-.97-1.87-.97-2.99,0-2.83,2.29-5.12,5.12-5.12,1.85,0,3.47.98,4.37,2.44,0,0,0,.01,0,.02v-.02c-.06-.31-.09-.63-.09-.96,0-2.83,2.29-5.12,5.12-5.12,2.48,0,4.54,1.75,5.02,4.08.32-1.52,1.32-2.88,2.83-3.59,2.56-1.21,5.61-.11,6.82,2.45.44.94.57,1.94.44,2.89.49-.71,1.17-1.3,2.01-1.7,2.56-1.21,5.62-.11,6.82,2.45.78,1.66.59,3.54-.34,4.97.24-.17.5-.32.78-.45,2.56-1.2,5.61-.11,6.82,2.45.96,2.04.47,4.37-1.06,5.86.63-.03,1.28.06,1.91.28,2.67.94,4.06,3.87,3.12,6.54-.59,1.69-1.98,2.87-3.6,3.27,1.97.55,3.51,2.26,3.73,4.42Z"/>
      <path class="cls-2" d="M368.01,369.22c.29,2.81-1.77,5.33-4.58,5.61-.26.03-.53.03-.79.02,1.14.83,1.93,2.13,2.09,3.64.29,2.83-1.78,5.36-4.61,5.65-1.29.13-2.51-.22-3.48-.91.5.71.83,1.55.93,2.47.29,2.83-1.78,5.36-4.61,5.65-1.91.2-3.7-.69-4.73-2.16.5,1.76.03,3.74-1.39,5.1-2.05,1.95-5.29,1.89-7.24-.16-.86-.9-1.36-2.03-1.44-3.18-.09,1.22-.61,2.43-1.57,3.34-2.04,1.95-5.28,1.89-7.24-.16-1.16-1.21-1.6-2.83-1.35-4.37-.16.21-.34.41-.54.6-2.04,1.96-5.28,1.89-7.24-.16-1.72-1.81-1.87-4.54-.48-6.5.06-.08.13-.17.2-.25-.09.06-.17.13-.26.18-1.35.92-3.1,1.18-4.73.55-2.64-1.01-3.96-3.98-2.94-6.62.39-1.01,1.05-1.82,1.87-2.38-.95.22-1.98.16-2.96-.21-2.64-1.02-3.96-3.98-2.94-6.62.63-1.63,1.99-2.75,3.56-3.14-.42-.04-.83-.14-1.25-.3-2.64-1.02-3.96-3.98-2.95-6.62.86-2.24,3.13-3.53,5.42-3.25-1.17-.94-1.92-2.38-1.92-4,0-2.83,2.29-5.13,5.13-5.13,1.22,0,2.35.43,3.23,1.14-.61-.84-.97-1.87-.97-2.99,0-2.83,2.29-5.12,5.12-5.12,1.85,0,3.47.98,4.37,2.44,0,0,0,.01,0,.02v-.02c-.06-.31-.09-.63-.09-.96,0-2.83,2.29-5.12,5.12-5.12,2.48,0,4.54,1.75,5.02,4.08.32-1.52,1.32-2.88,2.83-3.59,2.56-1.21,5.61-.11,6.82,2.45.44.94.57,1.94.44,2.89.49-.71,1.17-1.3,2.01-1.7,2.56-1.21,5.62-.11,6.82,2.45.78,1.66.59,3.54-.34,4.97.24-.17.5-.32.78-.45,2.56-1.2,5.61-.11,6.82,2.45.96,2.04.47,4.37-1.06,5.86.63-.03,1.28.06,1.91.28,2.67.94,4.06,3.87,3.12,6.54-.59,1.69-1.98,2.87-3.6,3.27,1.97.55,3.51,2.26,3.73,4.42Z"/>
      <path class="cls-2" d="M217.84,147.88c.29,2.81-1.77,5.33-4.58,5.61-.26.03-.53.03-.79.02,1.14.83,1.93,2.13,2.09,3.64.29,2.83-1.78,5.36-4.61,5.65-1.29.13-2.51-.22-3.48-.91.5.71.83,1.55.93,2.47.29,2.83-1.78,5.36-4.61,5.65-1.91.2-3.7-.69-4.73-2.16.5,1.76.03,3.74-1.39,5.1-2.05,1.95-5.29,1.89-7.24-.16-.86-.9-1.36-2.03-1.44-3.18-.09,1.22-.61,2.43-1.57,3.34-2.04,1.95-5.28,1.89-7.24-.16-1.16-1.21-1.6-2.83-1.35-4.37-.16.21-.34.41-.54.6-2.04,1.96-5.28,1.89-7.24-.16-1.72-1.81-1.87-4.54-.48-6.5.06-.08.13-.17.2-.25-.09.06-.17.13-.26.18-1.35.92-3.1,1.18-4.73.55-2.64-1.01-3.96-3.98-2.94-6.62.39-1.01,1.05-1.82,1.87-2.38-.95.22-1.98.16-2.96-.21-2.64-1.02-3.96-3.98-2.94-6.62.63-1.63,1.99-2.75,3.56-3.14-.42-.04-.83-.14-1.25-.3-2.64-1.02-3.96-3.98-2.95-6.62.86-2.24,3.13-3.53,5.42-3.25-1.17-.94-1.92-2.38-1.92-4,0-2.83,2.29-5.13,5.13-5.13,1.22,0,2.35.43,3.23,1.14-.61-.84-.97-1.87-.97-2.99,0-2.83,2.29-5.12,5.12-5.12,1.85,0,3.47.98,4.37,2.44,0,0,0,.01,0,.02v-.02c-.06-.31-.09-.63-.09-.96,0-2.83,2.29-5.12,5.12-5.12,2.48,0,4.54,1.75,5.02,4.08.32-1.52,1.32-2.88,2.83-3.59,2.56-1.21,5.61-.11,6.82,2.45.44.94.57,1.94.44,2.89.49-.71,1.17-1.3,2.01-1.7,2.56-1.21,5.62-.11,6.82,2.45.78,1.66.59,3.54-.34,4.97.24-.17.5-.32.78-.45,2.56-1.2,5.61-.11,6.82,2.45.96,2.04.47,4.37-1.06,5.86.63-.03,1.28.06,1.91.28,2.67.94,4.06,3.87,3.12,6.54-.59,1.69-1.98,2.87-3.6,3.27,1.97.55,3.51,2.26,3.73,4.42Z"/>
      <path class="cls-2" d="M169.42,191.79c.29,2.81-1.77,5.33-4.58,5.61-.26.03-.53.03-.79.02,1.14.83,1.93,2.13,2.09,3.64.29,2.83-1.78,5.36-4.61,5.65-1.29.13-2.51-.22-3.48-.91.5.71.83,1.55.93,2.47.29,2.83-1.78,5.36-4.61,5.65-1.91.2-3.7-.69-4.73-2.16.5,1.76.03,3.74-1.39,5.1-2.05,1.95-5.29,1.89-7.24-.16-.86-.9-1.36-2.03-1.44-3.18-.09,1.22-.61,2.43-1.57,3.34-2.04,1.95-5.28,1.89-7.24-.16-1.16-1.21-1.6-2.83-1.35-4.37-.16.21-.34.41-.54.6-2.04,1.96-5.28,1.89-7.24-.16-1.72-1.81-1.87-4.54-.48-6.5.06-.08.13-.17.2-.25-.09.06-.17.13-.26.18-1.35.92-3.1,1.18-4.73.55-2.64-1.01-3.96-3.98-2.94-6.62.39-1.01,1.05-1.82,1.87-2.38-.95.22-1.98.16-2.96-.21-2.64-1.02-3.96-3.98-2.94-6.62.63-1.63,1.99-2.75,3.56-3.14-.42-.04-.83-.14-1.25-.3-2.64-1.02-3.96-3.98-2.95-6.62.86-2.24,3.13-3.53,5.42-3.25-1.17-.94-1.92-2.38-1.92-4,0-2.83,2.29-5.13,5.13-5.13,1.22,0,2.35.43,3.23,1.14-.61-.84-.97-1.87-.97-2.99,0-2.83,2.29-5.12,5.12-5.12,1.85,0,3.47.98,4.37,2.44,0,0,0,.01,0,.02v-.02c-.06-.31-.09-.63-.09-.96,0-2.83,2.29-5.12,5.12-5.12,2.48,0,4.54,1.75,5.02,4.08.32-1.52,1.32-2.88,2.83-3.59,2.56-1.21,5.61-.11,6.82,2.45.44.94.57,1.94.44,2.89.49-.71,1.17-1.3,2.01-1.7,2.56-1.21,5.62-.11,6.82,2.45.78,1.66.59,3.54-.34,4.97.24-.17.5-.32.78-.45,2.56-1.2,5.61-.11,6.82,2.45.96,2.04.47,4.37-1.06,5.86.63-.03,1.28.06,1.91.28,2.67.94,4.06,3.87,3.12,6.54-.59,1.69-1.98,2.87-3.6,3.27,1.97.55,3.51,2.26,3.73,4.42Z"/>
      <path class="cls-2" d="M149.57,254.81c.29,2.81-1.77,5.33-4.58,5.61-.26.03-.53.03-.79.02,1.14.83,1.93,2.13,2.09,3.64.29,2.83-1.78,5.36-4.61,5.65-1.29.13-2.51-.22-3.48-.91.5.71.83,1.55.93,2.47.29,2.83-1.78,5.36-4.61,5.65-1.91.2-3.7-.69-4.73-2.16.5,1.76.03,3.74-1.39,5.1-2.05,1.95-5.29,1.89-7.24-.16-.86-.9-1.36-2.03-1.44-3.18-.09,1.22-.61,2.43-1.57,3.34-2.04,1.95-5.28,1.89-7.24-.16-1.16-1.21-1.6-2.83-1.35-4.37-.16.21-.34.41-.54.6-2.04,1.96-5.28,1.89-7.24-.16-1.72-1.81-1.87-4.54-.48-6.5.06-.08.13-.17.2-.25-.09.06-.17.13-.26.18-1.35.92-3.1,1.18-4.73.55-2.64-1.01-3.96-3.98-2.94-6.62.39-1.01,1.05-1.82,1.87-2.38-.95.22-1.98.16-2.96-.21-2.64-1.02-3.96-3.98-2.94-6.62.63-1.63,1.99-2.75,3.56-3.14-.42-.04-.83-.14-1.25-.3-2.64-1.02-3.96-3.98-2.95-6.62.86-2.24,3.13-3.53,5.42-3.25-1.17-.94-1.92-2.38-1.92-4,0-2.83,2.29-5.13,5.13-5.13,1.22,0,2.35.43,3.23,1.14-.61-.84-.97-1.87-.97-2.99,0-2.83,2.29-5.12,5.12-5.12,1.85,0,3.47.98,4.37,2.44,0,0,0,.01,0,.02v-.02c-.06-.31-.09-.63-.09-.96,0-2.83,2.29-5.12,5.12-5.12,2.48,0,4.54,1.75,5.02,4.08.32-1.52,1.32-2.88,2.83-3.59,2.56-1.21,5.61-.11,6.82,2.45.44.94.57,1.94.44,2.89.49-.71,1.17-1.3,2.01-1.7,2.56-1.21,5.62-.11,6.82,2.45.78,1.66.59,3.54-.34,4.97.24-.17.5-.32.78-.45,2.56-1.2,5.61-.11,6.82,2.45.96,2.04.47,4.37-1.06,5.86.63-.03,1.28.06,1.91.28,2.67.94,4.06,3.87,3.12,6.54-.59,1.69-1.98,2.87-3.6,3.27,1.97.55,3.51,2.26,3.73,4.42Z"/>
      <path class="cls-2" d="M160.06,317.72c.29,2.81-1.77,5.33-4.58,5.61-.26.03-.53.03-.79.02,1.14.83,1.93,2.13,2.09,3.64.29,2.83-1.78,5.36-4.61,5.65-1.29.13-2.51-.22-3.48-.91.5.71.83,1.55.93,2.47.29,2.83-1.78,5.36-4.61,5.65-1.91.2-3.7-.69-4.73-2.16.5,1.76.03,3.74-1.39,5.1-2.05,1.95-5.29,1.89-7.24-.16-.86-.9-1.36-2.03-1.44-3.18-.09,1.22-.61,2.43-1.57,3.34-2.04,1.95-5.28,1.89-7.24-.16-1.16-1.21-1.6-2.83-1.35-4.37-.16.21-.34.41-.54.6-2.04,1.96-5.28,1.89-7.24-.16-1.72-1.81-1.87-4.54-.48-6.5.06-.08.13-.17.2-.25-.09.06-.17.13-.26.18-1.35.92-3.1,1.18-4.73.55-2.64-1.01-3.96-3.98-2.94-6.62.39-1.01,1.05-1.82,1.87-2.38-.95.22-1.98.16-2.96-.21-2.64-1.02-3.96-3.98-2.94-6.62.63-1.63,1.99-2.75,3.56-3.14-.42-.04-.83-.14-1.25-.3-2.64-1.02-3.96-3.98-2.95-6.62.86-2.24,3.13-3.53,5.42-3.25-1.17-.94-1.92-2.38-1.92-4,0-2.83,2.29-5.13,5.13-5.13,1.22,0,2.35.43,3.23,1.14-.61-.84-.97-1.87-.97-2.99,0-2.83,2.29-5.12,5.12-5.12,1.85,0,3.47.98,4.37,2.44,0,0,0,.01,0,.02v-.02c-.06-.31-.09-.63-.09-.96,0-2.83,2.29-5.12,5.12-5.12,2.48,0,4.54,1.75,5.02,4.08.32-1.52,1.32-2.88,2.83-3.59,2.56-1.21,5.61-.11,6.82,2.45.44.94.57,1.94.44,2.89.49-.71,1.17-1.3,2.01-1.7,2.56-1.21,5.62-.11,6.82,2.45.78,1.66.59,3.54-.34,4.97.24-.17.5-.32.78-.45,2.56-1.2,5.61-.11,6.82,2.45.96,2.04.47,4.37-1.06,5.86.63-.03,1.28.06,1.91.28,2.67.94,4.06,3.87,3.12,6.54-.59,1.69-1.98,2.87-3.6,3.27,1.97.55,3.51,2.26,3.73,4.42Z"/>
      <path class="cls-2" d="M196.98,369.22c.29,2.81-1.77,5.33-4.58,5.61-.26.03-.53.03-.79.02,1.14.83,1.93,2.13,2.09,3.64.29,2.83-1.78,5.36-4.61,5.65-1.29.13-2.51-.22-3.48-.91.5.71.83,1.55.93,2.47.29,2.83-1.78,5.36-4.61,5.65-1.91.2-3.7-.69-4.73-2.16.5,1.76.03,3.74-1.39,5.1-2.05,1.95-5.29,1.89-7.24-.16-.86-.9-1.36-2.03-1.44-3.18-.09,1.22-.61,2.43-1.57,3.34-2.04,1.95-5.28,1.89-7.24-.16-1.16-1.21-1.6-2.83-1.35-4.37-.16.21-.34.41-.54.6-2.04,1.96-5.28,1.89-7.24-.16-1.72-1.81-1.87-4.54-.48-6.5.06-.08.13-.17.2-.25-.09.06-.17.13-.26.18-1.35.92-3.1,1.18-4.73.55-2.64-1.01-3.96-3.98-2.94-6.62.39-1.01,1.05-1.82,1.87-2.38-.95.22-1.98.16-2.96-.21-2.64-1.02-3.96-3.98-2.94-6.62.63-1.63,1.99-2.75,3.56-3.14-.42-.04-.83-.14-1.25-.3-2.64-1.02-3.96-3.98-2.95-6.62.86-2.24,3.13-3.53,5.42-3.25-1.17-.94-1.92-2.38-1.92-4,0-2.83,2.29-5.13,5.13-5.13,1.22,0,2.35.43,3.23,1.14-.61-.84-.97-1.87-.97-2.99,0-2.83,2.29-5.12,5.12-5.12,1.85,0,3.47.98,4.37,2.44,0,0,0,.01,0,.02v-.02c-.06-.31-.09-.63-.09-.96,0-2.83,2.29-5.12,5.12-5.12,2.48,0,4.54,1.75,5.02,4.08.32-1.52,1.32-2.88,2.83-3.59,2.56-1.21,5.61-.11,6.82,2.45.44.94.57,1.94.44,2.89.49-.71,1.17-1.3,2.01-1.7,2.56-1.21,5.62-.11,6.82,2.45.78,1.66.59,3.54-.34,4.97.24-.17.5-.32.78-.45,2.56-1.2,5.61-.11,6.82,2.45.96,2.04.47,4.37-1.06,5.86.63-.03,1.28.06,1.91.28,2.67.94,4.06,3.87,3.12,6.54-.59,1.69-1.98,2.87-3.6,3.27,1.97.55,3.51,2.26,3.73,4.42Z"/>
    </g>
  </g>
</svg>